<svg width="32" height="10" viewBox="0 0 32 10" fill="none" xmlns="http://www.w3.org/2000/svg">
<path d="M9.43136 3.4173C9.10218 1.25475 7.27338 0 4.90117 0C2.10573 0 0 1.85361 0 5C0 8.14163 2.0796 10 4.90117 10C7.44581 10 9.13353 8.50285 9.43136 6.64449L7.47716 6.63498C7.23158 7.77567 6.20745 8.4173 4.9273 8.4173C3.19255 8.4173 1.94897 7.23384 1.94897 5C1.94897 2.80418 3.1821 1.5827 4.93252 1.5827C6.23358 1.5827 7.25248 2.25285 7.47716 3.4173H9.43136Z" fill="white"/>
<path d="M11.2066 9.86692H13.1451V6.30228H15.1202L17.2207 9.86692H19.3839L17.0692 6.0076C18.3284 5.54658 18.992 4.56749 18.992 3.2462C18.992 1.38783 17.6753 0.13308 15.2195 0.13308H11.2066V9.86692ZM13.1451 4.8384V1.60646H14.9217C16.369 1.60646 17.0169 2.21008 17.0169 3.2462C17.0169 4.28232 16.369 4.8384 14.9321 4.8384H13.1451Z" fill="white"/>
<path d="M20.7764 0.13308V9.86692H22.6366V3.1654H22.7358L25.6933 9.8384H27.0832L30.0406 3.17966H30.1399V9.86692H32V0.13308H29.6278L26.4509 7.18631H26.3255L23.1486 0.13308H20.7764Z" fill="white"/>
</svg>
