<svg width="46" height="28" viewBox="0 0 46 28" fill="none" xmlns="http://www.w3.org/2000/svg">
<rect width="46" height="28" rx="3" fill="#EEF3FD"/>
<path d="M26.5909 7.58492C26.7763 7.39948 26.9964 7.25238 27.2387 7.15201C27.481 7.05165 27.7407 7 28.003 7C28.2652 7 28.5249 7.05165 28.7672 7.15201C29.0095 7.25238 29.2296 7.39948 29.4151 7.58492C29.6005 7.77036 29.7476 7.99051 29.848 8.2328C29.9483 8.47509 30 8.73478 30 8.99703C30 9.25928 29.9483 9.51897 29.848 9.76126C29.7476 10.0036 29.6005 10.2237 29.4151 10.4091L19.8833 19.9409L16 21L17.0591 17.1167L26.5909 7.58492Z" stroke="#5382E7" stroke-width="1.3" stroke-linecap="round" stroke-linejoin="round"/>
</svg>
