<svg width="130" height="20" viewBox="0 0 130 20" fill="none" xmlns="http://www.w3.org/2000/svg">
<path d="M9.14744 0.266034V13.8337C9.13762 15.7055 8.27393 16.6936 6.70357 16.6936C5.22154 16.6936 4.2597 15.8005 4.23025 14.2518H0.000100233C-0.0195292 18.1378 2.84637 19.9905 6.48764 19.9905C10.5608 19.9905 13.3383 17.6057 13.3481 13.8337V0.266034H9.14744Z" fill="#2B3844"/>
<path d="M31.6594 0.266034V12.5511C31.6594 14.7743 30.0498 16.38 27.5764 16.38C25.1129 16.38 23.4935 14.7743 23.4935 12.5511V0.266034H19.2437V12.9026C19.2437 17.1591 22.5611 20 27.5764 20C32.5722 20 35.9092 17.1591 35.9092 12.9026V0.266034H31.6594Z" fill="#2B3844"/>
<path d="M52.6917 5.86223H56.7649C56.706 2.3943 53.7616 0 49.286 0C44.8792 0 41.6502 2.35629 41.6698 5.89074C41.66 8.7601 43.7505 10.4038 47.1464 11.1924L49.3351 11.7245C51.5238 12.2375 52.7408 12.8456 52.7506 14.1568C52.7408 15.5819 51.3471 16.5511 49.1879 16.5511C46.9796 16.5511 45.3896 15.5629 45.2522 13.6152H41.1398C41.2478 17.8242 44.359 20 49.237 20C54.1443 20 57.0299 17.7292 57.0397 14.1663C57.0299 10.9264 54.5075 9.20665 51.0134 8.44656L49.2075 8.0285C47.4605 7.63895 45.9981 7.01188 46.0275 5.6152C46.0275 4.36105 47.1759 3.43943 49.2566 3.43943C51.2882 3.43943 52.5347 4.33254 52.6917 5.86223Z" fill="#2B3844"/>
<path d="M61.5146 3.65796H67.6684V19.7245H71.8691V3.65796H78.023V0.266034H61.5146V3.65796Z" fill="#2B3844"/>
<path d="M87.3734 0.266034H83.1236V19.7245H87.3734V0.266034Z" fill="#2B3844"/>
<path d="M110.987 7.07839C110.428 2.58432 106.914 0 102.262 0C96.9519 0 92.8984 3.62945 92.8984 9.99525C92.8984 16.342 96.8832 19.9905 102.262 19.9905C107.414 19.9905 110.526 16.6746 110.987 13.0926L106.688 13.0736C106.286 15.1544 104.598 16.3515 102.33 16.3515C99.278 16.3515 97.2071 14.1568 97.2071 9.99525C97.2071 5.94774 99.2486 3.63896 102.36 3.63896C104.686 3.63896 106.364 4.94062 106.688 7.07839H110.987Z" fill="#2B3844"/>
<path d="M116.416 19.7245H130V16.3325H120.666V11.6865H129.264V8.29454H120.666V3.65796H129.961V0.266034H116.416V19.7245Z" fill="#2B3844"/>
</svg>
