<svg width="100" height="22" viewBox="0 0 100 22" fill="none" xmlns="http://www.w3.org/2000/svg">
<path d="M31.1186 5.81818V16H32.5803V8.62713H32.6747L35.6776 15.9851H36.8906L39.8935 8.6321H39.9879V16H41.4496V5.81818H39.5852L36.3438 13.733H36.2244L32.983 5.81818H31.1186ZM45.786 16.169C47.0488 16.169 47.7598 15.5277 48.0431 14.956H48.1028V16H49.5545V10.929C49.5545 8.70668 47.8045 8.2642 46.5914 8.2642C45.2093 8.2642 43.9366 8.82102 43.4395 10.2131L44.8365 10.5312C45.0552 9.98935 45.612 9.46733 46.6113 9.46733C47.5708 9.46733 48.063 9.96946 48.063 10.8345V10.8693C48.063 11.4112 47.5062 11.4013 46.1341 11.5604C44.6873 11.7294 43.2058 12.1072 43.2058 13.8423C43.2058 15.3438 44.3343 16.169 45.786 16.169ZM46.1092 14.9759C45.269 14.9759 44.6625 14.598 44.6625 13.8622C44.6625 13.0668 45.3684 12.7834 46.2285 12.669C46.7108 12.6044 47.8542 12.4751 48.068 12.2614V13.2457C48.068 14.1506 47.3471 14.9759 46.1092 14.9759ZM51.5344 16H53.021V8.36364H51.5344V16ZM52.2852 7.18537C52.7972 7.18537 53.2248 6.78764 53.2248 6.30043C53.2248 5.81321 52.7972 5.41051 52.2852 5.41051C51.7681 5.41051 51.3455 5.81321 51.3455 6.30043C51.3455 6.78764 51.7681 7.18537 52.2852 7.18537ZM56.5073 11.4659C56.5073 10.2479 57.253 9.55185 58.2871 9.55185C59.2963 9.55185 59.9078 10.2131 59.9078 11.3217V16H61.3944V11.1428C61.3944 9.25355 60.3553 8.2642 58.7942 8.2642C57.6458 8.2642 56.8951 8.79616 56.5421 9.60653H56.4476V8.36364H55.0208V16H56.5073V11.4659ZM67.093 18.8636H68.5795V14.8118H68.669C68.9375 15.299 69.4844 16.1491 70.8764 16.1491C72.7259 16.1491 74.0682 14.6676 74.0682 12.1967C74.0682 9.72088 72.706 8.2642 70.8615 8.2642C69.4446 8.2642 68.9325 9.12926 68.669 9.60156H68.5447V8.36364H67.093V18.8636ZM68.5497 12.1818C68.5497 10.5859 69.2457 9.52699 70.5433 9.52699C71.8906 9.52699 72.5668 10.6655 72.5668 12.1818C72.5668 13.7131 71.8707 14.8814 70.5433 14.8814C69.2656 14.8814 68.5497 13.7876 68.5497 12.1818ZM77.956 16.169C79.2188 16.169 79.9297 15.5277 80.2131 14.956H80.2727V16H81.7244V10.929C81.7244 8.70668 79.9744 8.2642 78.7614 8.2642C77.3793 8.2642 76.1065 8.82102 75.6094 10.2131L77.0064 10.5312C77.2251 9.98935 77.782 9.46733 78.7812 9.46733C79.7408 9.46733 80.233 9.96946 80.233 10.8345V10.8693C80.233 11.4112 79.6761 11.4013 78.304 11.5604C76.8572 11.7294 75.3757 12.1072 75.3757 13.8423C75.3757 15.3438 76.5043 16.169 77.956 16.169ZM78.2791 14.9759C77.4389 14.9759 76.8324 14.598 76.8324 13.8622C76.8324 13.0668 77.5384 12.7834 78.3984 12.669C78.8807 12.6044 80.0241 12.4751 80.2379 12.2614V13.2457C80.2379 14.1506 79.517 14.9759 78.2791 14.9759ZM86.9061 19.0227C88.85 19.0227 90.3514 18.1328 90.3514 16.169V8.36364H88.8947V9.60156H88.7853C88.5218 9.12926 87.9949 8.2642 86.573 8.2642C84.7285 8.2642 83.3713 9.72088 83.3713 12.152C83.3713 14.5881 84.7583 15.8857 86.563 15.8857C87.965 15.8857 88.5069 15.0952 88.7754 14.608H88.8699V16.1094C88.8699 17.3075 88.0495 17.8246 86.921 17.8246C85.6831 17.8246 85.2008 17.2031 84.9373 16.7656L83.6596 17.2926C84.0623 18.2273 85.0815 19.0227 86.9061 19.0227ZM86.8912 14.6527C85.5637 14.6527 84.8727 13.6335 84.8727 12.1321C84.8727 10.6655 85.5488 9.52699 86.8912 9.52699C88.1887 9.52699 88.8848 10.5859 88.8848 12.1321C88.8848 13.7081 88.1738 14.6527 86.8912 14.6527ZM95.6362 16.1541C97.3017 16.1541 98.4799 15.3338 98.818 14.0909L97.411 13.8374C97.1426 14.5582 96.4963 14.9261 95.6511 14.9261C94.3784 14.9261 93.5233 14.1009 93.4835 12.6293H98.9125V12.1023C98.9125 9.34304 97.2619 8.2642 95.5318 8.2642C93.4039 8.2642 92.002 9.88494 92.002 12.2315C92.002 14.603 93.3841 16.1541 95.6362 16.1541ZM93.4885 11.5156C93.5481 10.4318 94.3336 9.49219 95.5417 9.49219C96.6951 9.49219 97.4508 10.3473 97.4558 11.5156H93.4885Z" fill="#5382E7"/>
<path d="M1 8L10 1L19 8V19C19 19.5304 18.7893 20.0391 18.4142 20.4142C18.0391 20.7893 17.5304 21 17 21H3C2.46957 21 1.96086 20.7893 1.58579 20.4142C1.21071 20.0391 1 19.5304 1 19V8Z" stroke="#5382E7" stroke-width="1.8" stroke-linecap="round" stroke-linejoin="round"/>
<path d="M7 21V11H13V21" stroke="#5382E7" stroke-width="1.8" stroke-linecap="round" stroke-linejoin="round"/>
</svg>
