<svg width="114" height="22" viewBox="0 0 114 22" fill="none" xmlns="http://www.w3.org/2000/svg">
<g opacity="0.4">
<path d="M30.1186 5.81818V16H31.5803V8.62713H31.6747L34.6776 15.9851H35.8906L38.8935 8.6321H38.9879V16H40.4496V5.81818H38.5852L35.3438 13.733H35.2244L31.983 5.81818H30.1186ZM43.5034 18.8636C44.7314 18.8636 45.5069 18.2223 45.9494 17.0192L49.1064 8.37855L47.5005 8.36364L45.5666 14.2898H45.487L43.5531 8.36364H41.9622L44.7562 16.0994L44.5723 16.6065C44.1944 17.6207 43.6625 17.7053 42.8471 17.4815L42.4892 18.6996C42.6681 18.7791 43.0559 18.8636 43.5034 18.8636ZM54.3315 16H55.8677V12.4205H57.9558C60.3173 12.4205 61.4856 10.9936 61.4856 9.11435C61.4856 7.24006 60.3272 5.81818 57.9608 5.81818H54.3315V16ZM55.8677 11.1179V7.13565H57.7967C59.318 7.13565 59.9395 7.96094 59.9395 9.11435C59.9395 10.2678 59.318 11.1179 57.8166 11.1179H55.8677ZM63.1673 16H64.6538V11.3366C64.6538 10.3374 65.4244 9.61648 66.4783 9.61648C66.7866 9.61648 67.1346 9.67116 67.2539 9.70597V8.28409C67.1048 8.2642 66.8114 8.24929 66.6225 8.24929C65.7276 8.24929 64.962 8.75639 64.6836 9.5767H64.604V8.36364H63.1673V16ZM71.4835 16.1541C73.6362 16.1541 75.0431 14.5781 75.0431 12.2166C75.0431 9.8402 73.6362 8.2642 71.4835 8.2642C69.3308 8.2642 67.9238 9.8402 67.9238 12.2166C67.9238 14.5781 69.3308 16.1541 71.4835 16.1541ZM71.4885 14.9062C70.0815 14.9062 69.4252 13.6783 69.4252 12.2116C69.4252 10.75 70.0815 9.5071 71.4885 9.5071C72.8855 9.5071 73.5417 10.75 73.5417 12.2116C73.5417 13.6783 72.8855 14.9062 71.4885 14.9062ZM79.5611 16.1491C80.9531 16.1491 81.5 15.299 81.7685 14.8118H81.8928V16H83.3445V5.81818H81.858V9.60156H81.7685C81.5 9.12926 80.9929 8.2642 79.571 8.2642C77.7266 8.2642 76.3693 9.72088 76.3693 12.1967C76.3693 14.6676 77.7067 16.1491 79.5611 16.1491ZM79.8892 14.8814C78.5618 14.8814 77.8707 13.7131 77.8707 12.1818C77.8707 10.6655 78.5469 9.52699 79.8892 9.52699C81.1868 9.52699 81.8828 10.5859 81.8828 12.1818C81.8828 13.7876 81.1719 14.8814 79.8892 14.8814ZM90.3034 12.8331C90.3084 14.1307 89.3439 14.7472 88.5087 14.7472C87.589 14.7472 86.9526 14.081 86.9526 13.0419V8.36364H85.4661V13.2209C85.4661 15.1151 86.5051 16.0994 87.9718 16.0994C89.1202 16.0994 89.9007 15.4929 90.2537 14.6776H90.3333V16H91.7949V8.36364H90.3034V12.8331ZM97.0089 16.1541C98.8136 16.1541 99.9819 15.0703 100.146 13.5838H98.6992C98.5103 14.4091 97.869 14.8963 97.0188 14.8963C95.761 14.8963 94.9506 13.8473 94.9506 12.1818C94.9506 10.5462 95.7759 9.51705 97.0188 9.51705C97.9634 9.51705 98.5401 10.1136 98.6992 10.8295H100.146C99.9869 9.28835 98.729 8.2642 96.994 8.2642C94.8413 8.2642 93.4492 9.88494 93.4492 12.2166C93.4492 14.5185 94.7915 16.1541 97.0089 16.1541ZM105.3 8.36364H103.734V6.53409H102.248V8.36364H101.129V9.55682H102.248V14.0661C102.243 15.4531 103.302 16.1243 104.475 16.0994C104.947 16.0945 105.265 16.005 105.439 15.9403L105.171 14.7124C105.072 14.7322 104.888 14.777 104.649 14.777C104.167 14.777 103.734 14.6179 103.734 13.7578V9.55682H105.3V8.36364ZM112.544 10.228C112.236 9.03977 111.306 8.2642 109.655 8.2642C107.93 8.2642 106.707 9.17401 106.707 10.5263C106.707 11.6101 107.363 12.331 108.795 12.6491L110.088 12.9325C110.824 13.0966 111.167 13.4247 111.167 13.902C111.167 14.4936 110.535 14.956 109.561 14.956C108.671 14.956 108.099 14.5732 107.92 13.8224L106.483 14.0412C106.732 15.3935 107.856 16.1541 109.571 16.1541C111.415 16.1541 112.693 15.1747 112.693 13.7926C112.693 12.7138 112.007 12.0476 110.605 11.7244L109.392 11.446C108.552 11.2472 108.189 10.9638 108.194 10.4467C108.189 9.86009 108.825 9.44247 109.67 9.44247C110.595 9.44247 111.023 9.95455 111.197 10.4666L112.544 10.228Z" fill="#2B3844"/>
<path d="M11 1H3C2.46957 1 1.96086 1.21071 1.58579 1.58579C1.21071 1.96086 1 2.46957 1 3V19C1 19.5304 1.21071 20.0391 1.58579 20.4142C1.96086 20.7893 2.46957 21 3 21H15C15.5304 21 16.0391 20.7893 16.4142 20.4142C16.7893 20.0391 17 19.5304 17 19V7L11 1Z" stroke="#2B3844" stroke-width="1.8" stroke-linecap="round" stroke-linejoin="round"/>
<path d="M11 1V7H17" stroke="#2B3844" stroke-width="1.8" stroke-linecap="round" stroke-linejoin="round"/>
<path d="M13 12H5" stroke="#2B3844" stroke-width="1.8" stroke-linecap="round" stroke-linejoin="round"/>
<path d="M13 16H5" stroke="#2B3844" stroke-width="1.8" stroke-linecap="round" stroke-linejoin="round"/>
<path d="M7 8H6H5" stroke="#2B3844" stroke-width="1.8" stroke-linecap="round" stroke-linejoin="round"/>
</g>
</svg>
