<svg width="53" height="28" viewBox="0 0 53 28" fill="none" xmlns="http://www.w3.org/2000/svg">
<rect opacity="0.1" width="53" height="28" rx="3" fill="#5382E7"/>
<path d="M21.7188 11.5653H22.9886C22.9503 10.1676 21.7145 9.15341 19.9418 9.15341C18.1903 9.15341 16.848 10.1548 16.848 11.6591C16.848 12.8736 17.7173 13.5852 19.1193 13.9645L20.1506 14.2457C21.0838 14.4929 21.804 14.7997 21.804 15.5753C21.804 16.4276 20.9901 16.9901 19.8693 16.9901C18.8551 16.9901 18.0114 16.5384 17.9347 15.5881H16.6136C16.6989 17.169 17.9219 18.1449 19.8778 18.1449C21.9276 18.1449 23.108 17.0668 23.108 15.5881C23.108 14.0156 21.706 13.4062 20.598 13.1335L19.7457 12.9119C19.0639 12.7372 18.1562 12.4176 18.1605 11.5824C18.1605 10.8409 18.8381 10.2912 19.9119 10.2912C20.9134 10.2912 21.625 10.7599 21.7188 11.5653ZM27.4002 18.1321C28.8278 18.1321 29.8377 17.429 30.1275 16.3636L28.9215 16.1463C28.6914 16.7642 28.1374 17.0795 27.413 17.0795C26.3221 17.0795 25.5891 16.3722 25.555 15.1108H30.2085V14.6591C30.2085 12.294 28.7937 11.3693 27.3107 11.3693C25.4869 11.3693 24.2852 12.7585 24.2852 14.7699C24.2852 16.8026 25.4698 18.1321 27.4002 18.1321ZM25.5593 14.1562C25.6104 13.2273 26.2837 12.4219 27.3192 12.4219C28.3079 12.4219 28.9556 13.1548 28.9599 14.1562H25.5593ZM32.8963 9.27273H31.6222V18H32.8963V9.27273ZM35.8846 9.27273H34.6104V18H35.8846V9.27273Z" fill="#5382E7"/>
</svg>
